<?xml version="1.0" encoding="UTF-8"?>
<!DOCTYPE svg PUBLIC "-//W3C//DTD SVG 1.1//EN" "http://www.w3.org/Graphics/SVG/1.1/DTD/svg11.dtd">
<!-- Creator: CorelDRAW 2020 (64-Bit Keine kommerzielle Nutzung) -->
<svg xmlns="http://www.w3.org/2000/svg" xml:space="preserve" width="1000px" height="1000px" version="1.1" shape-rendering="geometricPrecision" text-rendering="geometricPrecision" image-rendering="optimizeQuality" fill-rule="evenodd" clip-rule="evenodd"
viewBox="0 0 55.52 55.52"
 xmlns:xlink="http://www.w3.org/1999/xlink"
 xmlns:xodm="http://www.corel.com/coreldraw/odm/2003">
 <g id="Ebene_x0020_1">
  <metadata id="CorelCorpID_0Corel-Layer"/>
  <g id="_2017915323344">
   <polygon fill="#68A3DE" stroke="black" stroke-width="0.03" stroke-linecap="round" stroke-linejoin="round" stroke-miterlimit="22.9256" points="55.25,55.25 0.28,55.25 0.28,0.28 55.25,0.28 "/>
   <path id="MQ_x0020_Martinique_x0020__x0028_FR_x0029_" fill="#CCE6FF" d="M46.56 31.02c-0.02,0.03 -0.03,0.06 -0.05,0.09l-0.04 0.06c-0.16,0.23 -0.36,0.39 -0.63,0.47l-0.05 0.02 -0.06 0.02c-0.41,0.14 -0.83,0.06 -1.16,-0.22 -0.2,0.01 -0.39,-0.03 -0.58,-0.12l-0.04 -0.02c-0.25,-0.12 -0.42,-0.3 -0.55,-0.54l-0.05 -0.11c-0.09,-0.13 -0.16,-0.28 -0.19,-0.45 -0.03,-0.13 -0.03,-0.25 -0.02,-0.37 -0.02,-0.03 -0.04,-0.07 -0.06,-0.11l-0.04 -0.08c-0.03,-0.06 -0.06,-0.13 -0.08,-0.19 -0.04,-0.11 -0.07,-0.22 -0.08,-0.33 -0.05,-0.09 -0.09,-0.18 -0.11,-0.29l-0.01 -0.04 -0.01 -0.02c-0.07,-0.23 -0.08,-0.43 -0.03,-0.66l0.02 -0.08c0.06,-0.22 0.16,-0.4 0.32,-0.56l0.08 -0.08c0.06,-0.06 0.11,-0.11 0.18,-0.15l0.18 -0.12c0.21,-0.14 0.42,-0.2 0.67,-0.2l0.16 0c0.17,0 0.32,0.02 0.47,0.09l0.14 0.06c0.1,0.04 0.19,0.09 0.27,0.16l0.07 0.05 0.04 0.02c0.08,0.04 0.16,0.08 0.22,0.13 0.46,0.03 0.84,0.3 1.01,0.73 0.12,0.27 0.13,0.56 0.04,0.82 0.16,0.22 0.22,0.5 0.19,0.78 0,0.02 0.01,0.04 0.01,0.06 0.1,0.3 0.08,0.62 -0.07,0.92l-0.02 0.05c-0.04,0.08 -0.09,0.15 -0.14,0.21z"/>
   <path id="VI_x0020_Virgin_x0020_Islands_x0020_of_x0020_the_x0020_United_x0020_States_x0020__x0028_US_x0029_" fill="#FBF8F3" fill-rule="nonzero" stroke="black" stroke-width="0.03" stroke-linecap="round" stroke-linejoin="round" stroke-miterlimit="22.9256" d="M30.21 13.38l-0.12 0 -0.1 0.04 -0.21 0.1 -0.1 0.02 -0.93 0.16 -0.08 0.03 0.04 -0.09 0.02 -0.08 0 -0.2 0.02 -0.06 0.04 -0.04 0.18 0.04 0.08 -0.04 0.13 -0.06 0.1 -0.04 0 0.02 0.16 0.12 0.1 0.04 0.04 0.02 0.04 0.04 0.1 -0.08 0.17 -0.04 0.18 0 0.14 0.06 0 0.04zm-0.37 -3.04l-0.02 0.02 0.04 0.06 -0.04 0.12 -0.14 -0.08 -0.22 0.02 -0.06 -0.06 0.08 -0.12 0.08 -0.02 0.08 -0.04 -0.02 -0.05 0.04 -0.02 0.14 0.04 0.09 0.03 0.06 0.04 0.06 0.04 0.02 0.06 -0.06 0 -0.13 -0.04zm-0.77 0.14l-0.04 0.06 -0.12 -0.06 -0.06 -0.04 -0.02 -0.08 -0.02 0.04 -0.04 -0.02 -0.1 0.02 -0.08 -0.02 -0.04 -0.06 -0.15 0.04 -0.06 -0.08 0.14 -0.07 0.11 -0.04 0.16 0 0.06 0.07 0.04 -0.03 -0.06 -0.06 -0.02 -0.04 0.08 0.04 0.16 0.11 0.14 0.1 0.07 0.12 -0.04 0 -0.05 -0.02 -0.06 0.02z"/>
   <path id="VG_x0020_Virgin_x0020_Islands_x0020__x0028_GB_x0029_" fill="#FBF8F3" fill-rule="nonzero" stroke="black" stroke-width="0.03" stroke-linecap="round" stroke-linejoin="round" stroke-miterlimit="22.9256" d="M30.17 10.01l-0.04 0.06 -0.08 0.06 -0.06 0 -0.06 0 -0.13 -0.02 0.09 -0.06 0.08 0 0.04 -0.06 0.04 -0.08 0.02 -0.08 0.1 -0.04 0.06 0.02 0.1 -0.02 0.06 0 0.14 -0.02 0.15 0.02 0.04 0.06 -0.02 0.02 -0.04 0 -0.09 -0.04 -0.06 0.04 -0.02 0.04 -0.04 0.04 -0.04 0.02 -0.04 -0.02 -0.02 -0.02 -0.02 0 -0.04 0 0 0.02 -0.04 0.04 -0.06 0.02 -0.02 0zm1.18 -0.38l-0.04 0.06 -0.11 0.06 -0.08 0.06 -0.08 0.02 0.14 -0.16 0.04 -0.08 -0.02 -0.13 0.02 0 0.02 0.02 0 0 0.02 0.02 0.25 0 0.1 -0.04 -0.04 0.08 -0.1 0.07 -0.08 0.02 -0.04 0zm0.32 -1.24l-0.2 -0.02 -0.08 -0.02 -0.04 -0.08 0.4 0 0.14 0.06 0.04 0.18 -0.02 -0.02 -0.24 -0.1zm-1.22 1.87l0 0.04 0 0.06 -0.02 0.02 -0.02 -0.04 -0.04 -0.02 -0.06 -0.02 -0.02 -0.02 0.04 -0.02 0.04 0 0.02 0 0.02 0 0.04 0zm-0.67 -0.49l0 0.02 0.02 0.04 -0.04 0.02 -0.12 -0.02 -0.06 0 0.02 -0.04 0.12 -0.02 0.06 0zm0.9 -0.2l0.02 0 -0.02 0.06 0 0.02 0 0.06 -0.04 0.02 0 -0.02 0 -0.04 0 -0.04 0.02 -0.04 0.02 -0.02z"/>
   <path id="VE_x0020_Venezuela" fill="#FBF8F3" fill-rule="nonzero" stroke="black" stroke-width="0.03" stroke-linecap="round" stroke-linejoin="round" stroke-miterlimit="22.9256" d="M0.28 46.8l0.1 0 0.53 -0.06 0.08 -0.06 0.08 -0.12 -0.06 0.02 -0.02 0.02 -0.04 0.04 -0.02 0.06 0 -0.14 0.1 -0.04 0.24 0.04 0.15 -0.04 0.36 -0.19 0.16 -0.14 0.11 0.02 0.16 0.02 0.24 -0.12 0.1 -0.14 0.06 -0.14 0.02 -0.09 -0.02 -0.04 -0.02 -0.04 -0.06 0 0.06 -0.04 0.06 0 0.07 0.04 0.01 0.06 0.05 0.07 0.04 0.04 0.06 -0.02 0.02 -0.05 0.02 -0.08 0.04 0 0.06 0.04 0.04 0.02 0.02 0.02 0.04 0 0 -0.04 0 -0.06 0 -0.02 -0.02 -0.02 -0.04 -0.02 0.02 -0.02 0 -0.02 0.02 -0.04 -0.06 -0.02 0.02 -0.06 -0.2 -0.08 -0.1 0 0 -0.02 0.02 -0.04 0.02 0.02 0.08 -0.02 -0.04 -0.04 -0.06 -0.02 -0.06 -0.02 -0.05 -0.02 -0.08 -0.08 0.17 0.04 0.12 0.08 0.12 0.08 0.08 0.04 0.02 0.02 0.08 0.02 0.08 -0.02 0.08 0.04 0.07 0.04 0.08 -0.04 0.06 -0.06 0.08 0.04 0.02 0.08 0.04 0.02 0.06 -0.02 0.02 0.1 0.06 0.04 0.1 0.06 0.04 0.11 0.15 0.06 0.08 -0.06 0.04 -0.07 0.12 -0.1 0.06 -0.06 0.04 -0.12 -0.1 -0.16 0.04 -0.1 -0.04 -0.06 -0.06 -0.25 -0.02 -0.14 -0.1 -0.26 -0.02 0 -0.02 0.1 -0.05 -0.02 -0.04 -0.04 -0.02 -0.04 -0.06 0.02 -0.04 0.04 -0.02 0.04 -0.02 0 -0.22 0.08 -0.1 0.02 0.02 -0.1 -0.18 0.1 -0.05 0.02 -0.14 0 -0.06 0.02 -0.06 0.02 -0.1 0.06 -0.28 0.02 -0.23 0.12 -0.12 -0.02 -0.08 -0.1 0 -0.12 0.02 -0.04 0.06 -0.06 0.02 -0.04 0 -0.04 0 -0.02 -0.02 -0.02 0 -0.04 0 -0.13 0 -0.02 -0.04 -0.06 0 -0.04 0.02 0.02 0.06 0.04 0.02 0.02 0.02 -0.14 0 -0.06 -0.02 -0.04 -0.06 -0.04 -0.02 0.04 -0.02 0.06 -0.04 0.04 -0.02 -0.08 -0.08 -0.2 -0.02 -0.02 -0.02 -0.02 0 -0.02 -0.02 -0.12 0 -0.03 -0.04 -0.02 -0.04 0.02 0.02 -0.08 0.06 -0.18 0 -0.08 0.02 -0.08 0.1 -0.16 0.02 -0.11 0.04 -0.08 0.14 -0.18 0.06 -0.08 0.02 -0.08 0 -0.14 0.02 -0.06 0.21 0 0.08 -0.02 0.08 -0.07 0.3 -0.26 0.1 -0.06 0.13 -0.04 0.06 0.04 0.04 0.04 0.22 0.06 0.06 0.06 0.37 0.75 0.04 0.21 0.02 0.22 -0.02 0.45 0.02 0.2 0.22 0.89 0.18 0.47 0.14 0.22 0.19 0.14 0.14 0.04 0.12 -0.08 0.12 -0.1 0.19 -0.06 0.36 0.06 0.18 0.02 0.19 -0.08 0.14 -0.08 0.08 -0.04 0.08 -0.02 0.04 0.02 0.1 0.08 0.04 0 0.15 0 0.06 0 0.28 0.14 0.04 -0.02 0.02 0.06 0.06 0.06 0.08 0.06 0.04 0.02 0.19 0.04 0.71 -0.04 0.08 0.04 0.08 0.07 0.14 0.16 0.08 0.08 0.08 0.06 0.17 0.06 0.06 0.02 0.06 0 0.04 -0.02 0.02 0.02 0.1 0.06 0.02 0.04 0.04 0.08 0.1 0.11 0.33 0.2 0.1 0.08 0.08 0.08 0.02 0.08 0.04 0.04 0.28 0.14 0.04 -0.04 0 -0.02 0 -0.04 0.05 0 0 0.04 0.04 0.06 0 0.04 -0.04 0.11 0.04 0.12 0.16 0.3 0.24 0.61 0.04 0.14 -0.04 0.06 -0.04 -0.02 -0.04 -0.06 -0.06 -0.04 -0.08 -0.02 -0.06 0.02 -0.04 0.02 -0.06 0.04 -0.02 0.02 0.14 0.04 0.36 0.05 0.1 0.1 -0.06 0.1 -0.08 0.04 -0.2 0 -0.06 0.04 -0.04 0.1 0 0.12 0.04 0.31 0.12 0.44 0.06 0.12 0.08 0.21 0.04 0.08 0.15 0.22 0.16 0.16 0.18 0.09 0.55 0 0.08 0.02 0.1 0.06 0.1 0.04 0.08 -0.02 0.06 -0.04 0.09 -0.02 0.06 0 0.04 0.02 0 0.04 0 0.04 0 0.02 0.02 0.02 0.04 -0.02 0.04 -0.06 0 -0.02 0.14 -0.08 0.18 -0.05 0.61 -0.04 0.39 -0.12 0.36 -0.02 0.41 -0.06 0.28 -0.02 0.39 0.02 0.32 -0.06 0.27 -0.14 0.18 -0.04 0.18 -0.08 0.1 -0.02 0.57 0.02 0.49 -0.06 1.07 -0.07 0.51 0 0.06 0.03 0.04 0.04 0.25 0.04 0.08 0 0.06 -0.04 0.04 -0.09 0.08 -0.06 0.08 -0.02 0.1 0.02 0.29 0.17 0.28 0.08 0.08 0.08 0.22 0.02 0.05 0.02 -0.05 0.08 -0.1 0.06 -0.12 0.04 -0.08 -0.02 0 0.06 -0.02 0.14 0.02 0.04 0.14 0.17 0.33 0.28 0.02 0.06 0.14 0.1 0.08 0.15 0.3 0.2 -0.06 0.02 -0.06 -0.02 -0.04 -0.02 -0.04 -0.04 -0.04 0.04 -0.04 0.02 0.1 0.14 0.12 -0.02 0.11 0.08 0.18 0.18 0.12 0.06 0.12 0.03 0.27 0 -0.15 -0.11 -0.42 -0.2 -0.1 -0.16 1.27 0.65 0.53 0.18 0.16 0.04 0.51 0.1 0.63 0.12 0.18 0.13 0.17 0.04 0.06 0.02 0 0.04 -0.35 -0.12 -0.08 -0.02 0.02 0.06 0.08 0.06 0.1 0.04 0.21 0.02 0.04 -0.02 0.04 0 0.08 -0.06 0.14 -0.02 0.16 -0.13 0.08 -0.04 0.08 0 0.27 0.04 0.32 0.02 0.17 -0.02 0.14 -0.08 0.06 -0.08 0.04 -0.08 0.06 -0.18 0 -0.08 -0.02 -0.12 0.02 -0.09 0.04 0.05 0.04 0.04 0.06 0 0.04 0 -0.02 0.04 -0.02 0.02 -0.04 0 0.04 0.08 0.08 -0.02 0.04 -0.04 -0.04 -0.06 0.06 -0.04 0.13 -0.17 0.06 -0.02 0.12 -0.04 0.08 0 -0.02 0.02 0 0.02 -0.02 0.02 0.02 0 0.04 -0.02 0.04 -0.02 0.02 0.06 0.04 0 0.02 -0.04 0.02 0 0.02 -0.02 0.04 0.02 0.1 0.04 0.04 0.02 0.11 -0.04 0.14 -0.14 0.14 -0.04 0.08 -0.06 0.02 0 0.04 -0.02 0 -0.06 -0.02 -0.02 -0.12 0.06 -0.1 -0.02 -0.1 -0.02 -0.08 -0.06 0.04 -0.04 0.04 0 0.06 0.02 0.06 0.02 0.04 -0.02 0.1 -0.06 0.08 -0.02 -0.02 -0.06 0 -0.05 0.02 -0.04 -0.1 0 0 -0.04 0.1 -0.04 0.04 0.02 0.02 0.06 0 0.09 0 0.08 0.04 0 0.04 -0.06 0.05 -0.07 0 -0.14 0.2 -0.08 0.22 -0.06 0.18 -0.1 0.04 -0.08 0.03 -0.08 0.04 -0.04 0.1 -0.02 0.1 0 0.08 0.02 0.04 0.02 0.2 0.1 0.08 0.02 0.11 0.02 0.1 -0.02 0.28 -0.06 0.1 0.02 0.16 0.04 0.11 0.02 0.2 0 0.61 -0.18 0.14 -0.07 -0.1 -0.02 -0.12 0 -0.13 0 -0.1 -0.08 -0.08 -0.06 -0.22 -0.12 -0.1 -0.04 -0.25 0 -0.1 -0.02 -0.1 -0.06 -0.08 -0.04 -0.12 0 -0.24 0.06 0.02 -0.04 0.04 -0.06 -0.06 0 -0.05 0.02 -0.04 0.04 -0.04 0.04 -0.06 0 -0.3 -0.02 -0.06 0.02 -0.14 0.08 -0.05 0.02 -0.04 0.02 -0.04 0.12 -0.06 0.02 -0.06 -0.02 -0.02 -0.06 -0.02 -0.08 0.02 -0.06 -0.04 -0.1 -0.08 -0.1 -0.04 -0.1 0.02 -0.11 0.04 -0.02 0.04 -0.04 0.02 -0.04 0 -0.06 0.04 0 0.04 0.08 0.06 0.04 0.19 0.04 0.06 0.04 0.12 0.07 0.06 0.02 0.06 -0.02 0.26 -0.15 0.04 -0.02 0.07 0 0.04 0 0 0.02 0.02 0.04 0.02 0 0.42 0 0.1 0.04 0.06 -0.04 0.19 -0.04 0.06 -0.02 0.06 -0.06 0.04 -0.06 0.02 -0.1 0.02 -0.1 0.04 0 0.04 0.12 0.08 0.08 0.1 0.04 0.47 0.14 0.45 0.07 0.1 -0.03 0.2 -0.14 0.1 -0.04 0.08 0.04 0.02 0 0.02 -0.06 0.05 0 0.06 0.02 0.06 0 0.02 -0.02 0.02 -0.1 0.04 -0.04 0.02 0.04 0.04 0.02 0.02 0 0.04 -0.04 0.02 0.04 -0.02 0.04 0.08 0.04 0.04 -0.08 0.06 0.02 0.08 0.02 0.06 0.04 0.02 -0.02 0.03 -0.04 0.04 -0.02 0.04 0.02 0.04 0.02 0.04 -0.04 0.32 -0.22 0.06 -0.02 0 0.02 0.02 0.06 0.02 0.04 0.06 0.02 0.05 0 0.04 0 0.04 -0.02 0.04 -0.06 0.08 0.04 0.3 -0.04 0.1 0.02 0.19 0.08 0.1 0.02 0.1 -0.02 0.2 -0.08 0.16 -0.02 0.49 -0.18 0.06 -0.02 0.1 0.06 0.06 0.02 0.05 0 0.1 0.02 0.44 0 0.63 0.14 0.37 0.06 0.18 0.02 0.32 0.02 0.15 0.04 0.08 0 0.06 -0.02 0.12 -0.1 0.06 -0.02 0.31 0 0.12 -0.02 0.12 -0.08 0.04 0.06 0.12 -0.04 0.04 0.04 0.08 -0.04 0.12 -0.06 0.13 -0.02 0.08 0.02 -0.06 0.04 -0.08 0.06 -0.04 0.08 0.02 0.1 -0.05 0.04 -0.04 -0.06 -0.04 0.04 -0.06 0.06 -0.08 0.02 -0.02 0.02 -0.06 0.04 -0.04 0.02 -0.06 0 -0.04 -0.02 -0.04 0.02 -0.04 0.04 -0.29 0.02 -0.1 0.04 -0.38 -0.06 -0.31 0.02 -0.06 0.04 -0.04 0.07 -0.24 0.36 -0.1 0.1 -0.11 -0.02 -0.1 -0.06 -0.08 0 -0.08 0.04 -0.12 0 -0.04 0 -0.08 -0.04 -0.06 -0.02 -0.04 0 -0.09 0.02 -0.04 0 -0.1 0 -0.28 -0.1 -0.27 -0.02 -1.05 0.16 -0.12 0.04 -0.06 0.06 -0.04 0.08 -0.13 0.09 -0.12 0.08 -0.06 0.04 0 0.04 0.14 -0.06 0.25 -0.25 0.14 -0.08 0.18 -0.02 0.06 0.1 0 0.17 0 0.12 0.02 0.16 0 0.1 -0.02 0.04 -0.04 0 -0.06 0.04 -0.04 0 -0.04 -0.02 -0.06 -0.08 -0.04 0 -0.29 -0.02 -0.14 0.04 -0.06 0.1 0.04 -0.02 0.1 -0.04 0.02 0.12 0.02 0.06 0.05 0.03 -0.07 0.04 -0.08 0.1 -0.06 0.04 0.08 0.06 -0.02 0.06 -0.04 0.06 -0.06 0.06 0.26 -0.02 0.07 -0.02 0.02 -0.1 -0.09 -0.2 0.05 -0.11 -0.06 -0.04 0 -0.06 0.01 -0.08 0.05 -0.04 0.08 0 0.08 0.04 0.12 0.14 0.04 -0.04 0.04 -0.02 0.04 0 0.06 -0.02 0.14 -0.08 0.05 -0.02 0.06 0.02 0.1 0.04 0.06 0.04 0.06 0.04 0 0.04 0 0.09 0.02 0.06 0.02 0.04 0.1 0.08 0.06 0.06 0.04 0.08 0.02 0.08 0 0.1 -0.02 0.16 -0.02 0.07 0.06 0.12 0 0.04 0.02 0 0.02 0.02 0.04 0.02 0.02 0.1 0.05 0.08 0 0.04 -0.03 0.08 -0.06 0.08 -0.06 0.09 -0.06 0.04 -0.06 0 -0.08 0.02 -0.06 0 -0.06 0 -0.02 -0.02 -0.02 -0.04 -0.02 0 -0.08 -0.03 -0.08 0 -0.07 0.03 -0.04 0.08 0 0.04 -0.04 0.04 -0.02 0.04 -0.04 0 -0.04 -0.02 0 -0.1 -0.02 -0.04 -0.06 -0.04 -0.14 0.08 -0.06 -0.02 0 -0.04 0 -0.05 0 -0.06 -0.02 -0.02 -0.04 0 -0.06 0.02 -0.04 0.04 -0.03 0.05 -0.01 -0.07 -0.03 -0.04 -0.04 -0.02 -0.04 -0.02 -0.06 0.06 -0.06 0 -0.12 -0.02 0.02 0.02 0 0.02 0.06 0.09 0.06 0.04 0.04 -0.02 0.02 -0.04 0.04 -0.03 0.04 0 0.02 0.05 0 0.24 0.05 0.12 0.06 0 -0.05 -0.08 0 -0.06 0.05 -0.06 -0.05 -0.06 0.03 -0.04 0 -0.04 0.04 -0.04 0.04 0 0.02 0.02 -0.04 0.08 0.02 0.06 0.06 0.04 0.06 -0.02 0.08 -0.04 0.06 0 0.06 0.02 0.04 0.06 0.04 0.04 0.1 0 -0.06 0.14 0.04 0.04 0.06 -0.04 0.05 -0.08 -0.05 -0.16 0.02 -0.1 0.11 -0.02 0.02 0.02 0.08 0.08 0.04 0.02 0.06 0.02 0.24 -0.08 0.12 -0.06 0.11 -0.09 0.04 -0.1 0.02 -0.12 -0.06 -0.22 -0.02 -0.1 0.04 -0.15 0.08 -0.04 0.1 0.04 0.08 0.07 0.18 0.14 0.1 0.16 0.08 0.43 0.05 0.1 0.04 0.06 0.04 0.08 0 0.12 0.04 0.1 0.02 0.06 -0.02 0.07 -0.06 0.12 0.08 0 0.06 0.04 0.06 0.06 0.08 0.14 0.2 0.51 0.02 0.08 0 0.1 -0.02 0.06 -0.02 0.08 0 0.02 0.04 0.06 0.13 -0.14 0.1 -0.16 0.14 -0.39 0.02 -0.18 -0.06 -0.3 0.02 -0.21 0.06 0.08 0.08 0.11 0.14 0.36 0.04 0.12 -0.02 0.71 -0.08 0.23 -0.12 0.12 0.16 -0.04 0.08 -0.19 0.06 -0.22 0 -0.63 -0.02 -0.12 -0.1 -0.2 -0.02 -0.1 0.27 0.04 0.08 0.02 0.02 0.04 0.02 0.08 0.04 0.06 0.04 0.02 0.14 0.04 0.08 0.02 0.04 0 0.02 -0.02 -0.06 -0.06 -0.04 -0.02 -0.12 -0.04 -0.06 0 0 -0.04 -0.12 -0.14 -0.08 -0.04 -0.06 -0.02 -0.27 -0.02 -0.06 -0.03 -0.06 -0.08 0.06 -0.1 0.04 -0.08 0.04 -0.06 0.06 -0.02 0.37 0.1 0.22 0.1 0.16 0.13 0.43 0.38 0.08 0.08 0.12 0.2 0.14 0.11 0.07 0.06 0 0.08 0.02 0.04 0.04 0.06 0.02 0.06 0 0.04 -0.06 0.16 -0.09 0.19 -0.04 0.1 0.04 0 0.15 -0.29 0.06 -0.28 0.08 0.02 0.06 0.1 0.06 0.12 0.04 0.08 -0.04 0.11 0.02 0.42 0.04 -0.1 0.02 -0.12 0.02 -0.23 -0.02 -0.06 0 -0.04 -0.02 -0.04 -0.04 -0.04 -0.02 -0.04 -0.02 -0.12 -0.02 -0.06 -0.02 -0.02 -0.1 -0.02 -0.02 -0.02 -0.02 -0.04 -0.06 -0.1 -0.02 -0.07 -0.02 -0.04 -0.02 -0.02 0.04 -0.02 0.14 0 0.16 0.04 0.35 0.13 0.06 0 0.3 0.08 0.1 -0.06 -0.02 -0.08 -0.06 -0.07 -0.04 -0.08 -0.04 -0.02 -0.02 -0.02 -0.08 -0.04 0 -0.04 -0.02 -0.04 -0.06 -0.02 -0.06 -0.06 -0.02 -0.06 0.02 -0.02 0.14 0 0.04 0.02 0.06 0.04 0.12 0.08 0.18 0.14 0.15 0.1 0.14 0.13 0.06 0.1 0.18 0.24 -0.02 -0.14 -0.1 -0.16 -0.04 -0.11 -0.12 -0.06 -0.06 -0.08 0.02 0 0.06 0.06 0.06 0.02 0.08 0 0.06 0.05 0.04 0.06 0.12 0.14 0.06 0.08 0.07 0.08 0.08 0.08 0.06 0.1 0.06 0.04 0.08 0.08 0.2 0.21 0.1 0.08 0.04 0.16 0.02 0.03 -42.12 0 0 -8.45zm42.21 8.45l-0.02 -0.05 0.1 0 0.07 0.05 -0.15 0zm-12.24 -6.24l0.1 0.04 0.12 0.06 0.1 0.06 0.05 0.13 -0.09 0.1 -0.1 0 -0.1 -0.04 0 -0.1 -0.12 -0.02 -0.06 -0.03 -0.02 -0.02 0 -0.08 0.02 -0.04 0.06 -0.04 0.04 -0.02zm-5.6 -0.75l0.04 0 0.04 0 0 0.02 -0.04 0.06 0.06 0.12 0 0.07 -0.08 0.04 -0.12 0.06 0.02 -0.06 0.02 -0.02 -0.1 0.04 -0.08 0.02 -0.17 -0.02 -0.1 -0.02 -0.08 -0.04 -0.08 -0.05 -0.06 0.05 -0.1 -0.11 0.04 -0.12 0.12 -0.1 0.1 0 0.12 -0.06 0.11 0.02 0.22 0.1 0.04 0 0.08 0zm6.29 -0.91l0 0.1 0.06 0.18 0 0.1 0.14 0.31 0.02 0.12 -0.14 -0.02 0 0.02 -0.02 0.08 0 0.02 -0.06 -0.04 -0.04 -0.02 -0.02 0.02 -0.02 0.04 -0.1 0.1 -0.12 0.27 -0.27 -0.04 -0.1 0 -0.3 0.12 -0.06 0.06 0.02 -0.16 -0.09 -0.02 -0.1 0 -0.08 -0.19 -0.1 -0.08 -0.1 -0.06 -0.06 -0.06 -0.12 0.12 -0.1 0.02 -0.33 -0.04 -0.02 0 -0.02 -0.02 -0.02 -0.02 -0.12 0.02 -0.04 -0.02 -0.19 -0.06 -0.1 0 0.14 -0.26 0.03 -0.06 0 -0.13 0.04 -0.04 0.06 0 0.1 0 0.06 -0.02 0.04 -0.02 0.06 -0.06 0.04 0 0.08 0.02 0.14 -0.04 0.11 -0.02 0.1 0.02 0.04 0.06 -0.02 0.06 0 0.08 0.04 0.06 0.14 0.07 0.16 0.12 0.1 0.02 0.19 0.02 0.06 -0.02 0.08 -0.1 0.02 -0.06 0 -0.15 0.02 -0.06 0.06 -0.06 0.04 -0.02 0.02 -0.06 0 -0.04 0 -0.04 0.04 -0.04 0.04 -0.02 0.12 0 0.04 -0.02 0.07 -0.06 0.12 -0.16 0.08 -0.07 0 0.11 0.06 0.04 0.04 0.04 0.04 0.06zm-12.28 -3.33l0.08 0 0.03 0 -0.11 0.08 -0.16 0.02 -0.16 -0.02 -0.1 -0.08 0.12 0.02 0.12 -0.02 0.08 -0.08 0.08 -0.14 0.04 0.04 0.02 0.06 0 0.06 -0.04 0.06zm2.17 -0.22l0.11 0 0.02 0.04 0 0.08 -0.06 0.1 -0.15 0 -0.12 -0.08 -0.08 -0.1 0.06 -0.02 0.08 -0.02 0.14 0zm6.88 -0.39l0.06 0.04 0.15 0.12 0.02 0.06 0.02 0.09 -0.02 0.08 -0.04 0.04 -0.21 0 -0.1 -0.02 -0.08 -0.04 0.02 -0.04 0 -0.02 0 -0.02 -0.02 -0.04 0.06 -0.05 0.1 -0.14 0.04 -0.06zm-9.68 0.63l0.07 -0.02 0.02 0 0.02 0 -0.23 0.1 -0.02 0.02 -0.14 0.04 -0.04 0 -0.04 0.02 -0.1 0 -0.02 -0.02 0.1 0 0.06 0 0.02 -0.02 0.02 0 0.28 -0.12zm0.11 -0.47l0.08 0 0 0 -0.1 0.02 -0.02 0 -0.07 0.02 -0.08 -0.02 -0.04 0 -0.02 -0.02 -0.14 -0.02 0.02 0 0.37 0.02zm-4.14 -0.58l0.04 0 0.06 0.02 -0.04 0 -0.1 -0.02 -0.02 0 -0.02 -0.05 0.02 0 0.02 0 0.02 0.02 0.02 0.03zm-0.08 -0.23l0 0 0 0 0 0zm0 0l0.02 -0.02 0 0.02 0 0 -0.02 0zm0.02 -0.12l0 0.02 0 0.02 0 -0.02 0 -0.02zm-0.02 -0.06l0 0 -0.02 0 0.02 0zm-0.02 -0.02l0 -0.02 0 0.02 0 0zm19.52 -18.63l-0.02 -0.02 0.02 -0.02 0.02 0.02 0 0.02 0 0 -0.02 0zm4.03 29.65l0.04 0.06 0.02 0.12 -0.02 0.12 -0.02 0.08 -0.06 0 -0.04 -0.14 0 -0.12 0 -0.08 0.04 -0.06 0.04 0 0 0.02zm-0.3 -0.45l0.04 0.02 0.02 0.04 -0.02 0.08 -0.06 0.04 -0.06 -0.06 -0.02 -0.08 -0.02 -0.18 0 -0.06 0.04 -0.02 0.04 0.08 0.04 0.14zm0.75 -0.22l0.02 0.04 0.02 0.08 -0.02 0.06 -0.04 0.06 -0.06 0.04 -0.08 0.02 -0.06 0.02 -0.04 0.02 0 -0.06 0.06 -0.14 0.08 -0.12 0.08 -0.02 0.04 0zm-1.85 -1.63l0.04 0.05 0.04 0.08 -0.02 0.08 -0.04 0.08 -0.02 0 0 -0.06 -0.02 -0.04 -0.06 -0.08 -0.04 -0.04 -0.08 -0.09 -0.12 -0.12 -0.12 -0.08 -0.08 -0.1 -0.02 -0.1 0.02 -0.08 0 -0.04 0.02 -0.06 0.02 -0.05 0.02 0 0.12 0.17 0.1 0.18 0.24 0.3zm-6.65 -2.37l0.04 0.02 0.02 0.06 -0.1 0.08 -0.12 0 -0.09 -0.04 0.03 -0.08 0.06 -0.04 0.06 0 0.08 0.02 0.02 -0.02z"/>
   <path id="VC_x0020_Saint_x0020_Vincent_x0020_and_x0020_the_x0020_Grenadines" fill="#FBF8F3" fill-rule="nonzero" stroke="black" stroke-width="0.03" stroke-linecap="round" stroke-linejoin="round" stroke-miterlimit="22.9256" d="M43.44 37.57l-0.08 0.08 -0.08 0.16 -0.08 0.04 0.04 0 -0.04 0.04 -0.02 -0.04 -0.04 -0.02 -0.05 0 -0.04 0 0 -0.04 0.07 0.02 0.1 -0.02 0 -0.04 -0.02 -0.04 -0.02 -0.02 0.04 -0.04 0.14 -0.1 0.04 -0.04 0.02 0.02 0 0.02 0 0.02 0.02 0zm0.14 -0.55l-0.08 0.06 -0.1 -0.06 -0.26 -0.2 -0.02 -0.17 0.02 -0.16 0.06 -0.14 0 -0.02 -0.02 -0.06 0.12 -0.02 0.06 -0.1 0.04 -0.17 0.06 -0.12 0.06 -0.04 0.06 0 0.04 -0.02 0.12 0.02 0.02 0.02 0.02 0.04 0.02 0.08 0.05 0.23 -0.02 0.3 -0.09 0.33 -0.16 0.2zm-1.4 2.76l0.06 0.04 0.02 0.04 -0.04 0.02 -0.04 0.02 -0.06 0 -0.02 -0.04 0.02 -0.02 0 -0.02 0 -0.02 0 -0.02 0.04 0 0.02 0zm0.59 -0.65l0.02 0.02 0 0.04 -0.02 0.04 -0.02 0.04 -0.02 0.04 -0.02 0.02 -0.06 0 -0.04 0 0.02 -0.02 0.06 -0.02 0.02 -0.02 0 -0.06 0 -0.04 0.04 -0.04 0.02 0zm0.63 -0.69l0.04 -0.08 0.04 0.02 -0.04 0.1 -0.02 0.02 -0.02 0 0 -0.06z"/>
   <path id="TT_x0020_Trinidad_x0020_and_x0020_Tobago" fill="#FBF8F3" fill-rule="nonzero" stroke="black" stroke-width="0.03" stroke-linecap="round" stroke-linejoin="round" stroke-miterlimit="22.9256" d="M43.64 49.58l-0.08 -0.02 -0.06 0.1 -0.02 0.14 0 0.17 0.06 0.3 0.02 0.16 -0.14 0.12 0 0.15 0 0.08 0.04 0.28 0.02 0.08 0.02 0.06 0.08 0.15 0.16 0.12 -0.14 0.16 -0.06 0.26 -0.02 0.31 0.02 0.26 -0.1 -0.02 -0.1 0.02 -0.1 0.08 -0.1 0.08 -0.09 0.06 -0.1 0.04 -0.2 0.07 -0.04 0 -0.06 0 -0.29 -0.04 -0.1 0 -0.28 0.06 -0.37 -0.02 -0.38 0.02 0 0 -0.18 -0.02 -0.05 0 -0.12 0.06 -0.06 0 -0.08 0.02 -0.04 0.02 -0.08 -0.02 -0.04 -0.02 -0.04 -0.04 -0.04 -0.02 -0.08 -0.04 -0.11 0 -0.38 0 -0.1 0 -0.08 0.04 -0.08 0.06 -0.09 0.06 -0.1 0.04 -0.08 0 -0.08 -0.06 0.04 -0.08 0.14 -0.09 0.02 -0.02 0.06 -0.02 0.15 -0.02 0.04 -0.04 0.04 -0.08 0.08 -0.06 0.08 -0.04 0.34 -0.12 0.03 0 0.18 -0.1 0.14 -0.12 0 0 0 -0.17 0.06 -0.04 0.06 0 0.24 0.04 0.17 0 0.02 0 0.06 0 0.04 -0.02 0.06 -0.06 0.06 -0.06 0.04 -0.08 0.02 -0.1 0 -0.04 0 -0.04 -0.02 -0.08 -0.02 -0.1 0 -0.02 -0.04 -0.05 -0.02 -0.02 0 -0.02 0.02 -0.02 0.02 0 0 -0.02 0 -0.04 -0.02 -0.1 -0.02 -0.02 0 -0.08 0.02 -0.1 0.08 -0.16 0.04 -0.19 0 -0.2 -0.04 -0.2 -0.1 -0.14 0.04 -0.05 -0.16 -0.14 -0.1 -0.04 -0.12 -0.06 -0.11 -0.02 -0.22 -0.02 -0.02 -0.02 -0.02 -0.02 -0.04 -0.06 0.24 -0.18 0.06 -0.02 0.21 0 0.2 -0.04 0.1 0 0.02 0 0.06 -0.04 0.04 -0.05 0.02 -0.02 0.02 0.07 0.04 0 0 -0.02 0 -0.05 0.02 0 0.02 0.02 0 0 0 0.03 0.02 0.02 -0.04 0.04 0.04 -0.02 0.02 -0.02 0.03 -0.02 0.02 -0.03 0.08 0 0.02 0 0.04 -0.02 0.08 -0.12 0.04 -0.02 0.06 -0.02 0 0 0.24 0.04 0.53 0 0.04 -0.04 0.08 -0.06 0.27 -0.04 0.08 -0.02 0.59 -0.08 0.18 0.04 -0.2 0.39 -0.27 0.32zm2.3 -3.35l0.04 0.04 0 0.12 -0.02 0.17 -0.04 0.1 -0.07 0 -0.02 0 -0.04 0.08 -0.04 0 -0.04 -0.02 -0.04 0 -0.02 0.02 -0.06 0.1 -0.02 0 -0.1 0.08 -0.04 0.02 -0.06 0.04 -0.04 0 -0.06 0 -0.04 -0.02 -0.29 0.16 -0.08 0.02 -0.12 0.13 -0.08 0.04 -0.02 -0.08 -0.08 0.02 -0.07 0 -0.04 -0.06 0.02 -0.09 0.04 -0.02 0.07 0 0.06 -0.02 0.04 -0.08 0.04 -0.06 0.38 -0.28 0.11 -0.08 0.04 -0.04 0.06 -0.04 0.14 -0.07 0.14 -0.02 0.04 -0.04 0.06 -0.02 0.08 0.06 0.02 0 0.1 -0.12 0.05 -0.04z"/>
   <polygon id="SX_x0020_Sint_x0020_Maarten_x0020__x0028_NL_x0029_" fill="#FBF8F3" fill-rule="nonzero" stroke="black" stroke-width="0.03" stroke-linecap="round" stroke-linejoin="round" stroke-miterlimit="22.9256" points="36.84,11.78 36.93,11.8 37.23,11.92 37.17,12 36.86,11.92 36.8,11.88 36.78,11.84 36.84,11.8 "/>
   <path id="PR_x0020_Puerto_x0020_Rico_x0020__x0028_US_x0029_" fill="#FBF8F3" fill-rule="nonzero" stroke="black" stroke-width="0.03" stroke-linecap="round" stroke-linejoin="round" stroke-miterlimit="22.9256" d="M15.64 11.51l0.06 0.04 -0.02 0.04 -0.02 0.04 -0.06 0.09 -0.02 0.02 -0.02 0.04 0 0.04 -0.02 0 -0.04 0.02 -0.04 -0.02 -0.02 0 -0.02 -0.06 -0.12 -0.08 -0.02 -0.07 0.04 -0.08 0.04 -0.02 0.26 -0.02 0.02 0.02zm11.22 0l-0.04 -0.04 -0.06 0.02 -0.1 0.04 -0.37 0.08 -0.06 0.05 -0.1 -0.05 -0.12 0.02 -0.14 -0.02 -0.04 -0.14 0.06 0 0.02 0 0.08 0 0.1 -0.04 0.08 -0.06 0.08 -0.06 0.04 -0.02 0.37 -0.06 0.04 0.02 0.16 0.04 0.22 0.02 0.07 0.02 0.04 0.06 -0.04 0.02 -0.13 0 -0.02 0 -0.1 0.06 -0.02 0.04 -0.02 0zm0.39 -0.85l-0.06 -0.1 -0.17 -0.18 0 -0.02 0.11 0 0.14 0.02 0.1 0.06 0.04 0.08 -0.02 0 -0.04 0 0.02 0.04 -0.04 0 -0.04 0 -0.02 -0.04 -0.02 -0.04 -0.02 0 0.04 0.1 0 0.04 -0.02 0.04zm-1.57 0l-0.04 0.06 0.04 0.04 0.05 0.02 0.06 -0.04 -0.02 0.06 0 0.04 0.06 0.06 -0.06 0.05 0 0.04 -0.04 0.02 -0.05 -0.09 -0.06 0 -0.02 0.07 0.04 0.06 -0.04 0.04 -0.06 -0.02 -0.06 -0.04 -0.08 0.04 -0.08 0.04 -0.1 0.02 -0.08 0.04 -0.08 0.08 -0.19 0.26 -0.02 0.15 -0.08 0.08 -0.02 0.02 -0.1 0.02 -0.02 0.04 0.02 0.14 -0.08 0.08 -0.18 0.12 -0.25 0.08 -0.1 0 -0.1 -0.02 -0.08 0 -0.06 0 -0.14 0.06 -0.02 0 -0.15 0 -0.1 0.03 -0.26 0.16 -0.06 0 -0.06 0 -0.04 0 -0.05 0.02 0 -0.02 -0.02 -0.02 0 -0.02 0.07 -0.02 0.02 -0.02 -0.02 -0.04 -0.05 -0.02 -0.1 0.08 -0.04 0.02 -0.06 -0.02 -0.12 -0.02 -0.06 0 -0.02 -0.04 0 -0.04 -0.02 -0.03 -0.06 -0.04 -0.04 0 -0.06 0 -0.13 0.02 -0.12 0.11 -0.1 0 -0.08 -0.09 -0.06 -0.1 -0.06 -0.04 -0.08 0.02 -0.08 0 -0.04 0.02 -0.07 0.02 -0.16 0.02 -0.04 0.02 -0.04 0.04 -0.06 0 -0.06 -0.04 -0.04 0.02 -0.04 0.02 -0.02 -0.06 -0.08 0 -0.19 0.02 -0.02 0 -0.14 -0.06 -0.18 0 0.02 -0.08 -0.04 -0.02 -0.06 0.02 -0.06 0.04 0 0.04 0.06 0 -0.06 0.08 -0.1 0.05 -0.11 0.04 -0.1 0.02 -0.14 -0.02 -0.06 0.02 -0.04 -0.02 -0.04 0.02 -0.02 0.02 0 0.02 0 0.06 -0.08 -0.02 -0.06 -0.04 -0.1 -0.13 -0.09 0 -0.1 -0.02 -0.1 0 -0.06 -0.02 -0.08 0.07 -0.08 0.04 -0.06 0.02 -0.06 -0.02 -0.15 -0.02 -0.1 -0.07 -0.04 0.05 0.02 0.12 -0.06 0 -0.04 -0.1 -0.02 -0.07 0.02 -0.14 0.1 -0.04 0.04 -0.02 0.04 -0.02 0.04 -0.02 0.02 -0.04 -0.02 -0.02 -0.04 -0.02 -0.06 0 -0.06 -0.02 0.02 -0.1 0.02 -0.04 0.06 -0.04 -0.02 -0.06 0 -0.09 0.04 -0.04 0.02 -0.18 0.07 -0.18 0.04 -0.04 0.04 -0.04 0.02 -0.06 -0.02 -0.04 -0.04 -0.06 -0.07 -0.25 -0.02 -0.1 -0.1 -0.02 -0.08 -0.02 -0.06 -0.14 -0.02 -0.08 -0.04 -0.1 0.02 -0.03 0.12 -0.04 0.12 -0.06 0.09 -0.04 0.06 -0.04 0.12 -0.1 0.02 -0.1 -0.04 -0.1 0 -0.12 0.1 -0.13 0.22 -0.06 0.25 0 0.16 0.08 0.44 0.11 0.47 -0.07 0.06 0 0.16 0.07 0.08 0.02 0.17 -0.04 0.26 -0.05 0.12 0.03 0.1 0.04 0.09 0 0.28 0 0.18 0.06 0.39 -0.08 0.34 0.1 0.21 -0.06 0.22 0.08 0.06 -0.04 0.06 0.02 0.02 0.04 0.02 0.02 0.04 0.02 0.04 -0.02 0.04 -0.06 0.04 0.02 -0.02 0.06 0.08 0.06 0 0.04 0.02 0.06 0.09 0.02 0.14 -0.06 0 -0.04 -0.06 0 -0.08 -0.04 -0.07 -0.08 -0.04 -0.06 0.29 0.1 0.06 0.02 0.06 0.02 0.06 0.02 0.06 -0.04 0.06 -0.06 0.1 0.02 0.19 0.06 0.08 -0.04 0.06 0 0.04 0.04 0.14 0.04 0.08 0.04 0.06 0.1 0.06 -0.02 0.05 -0.06 0.02 0.02 0 0.02 -0.02 0.02 -0.03 0.04 0.03 0 0.06 -0.02 0.02 -0.02 0.06 0.12 0.08 0.04 0.06 -0.04 0.12 0.1 0.14 0.02 0.08 -0.06 0.04 -0.04 0.05 -0.02 0.04 0 0 0.04 -0.09 0.27 -0.02 0.2 0.02 0.06z"/>
   <polygon id="MS_x0020_Montserrat_x0020__x0028_GB_x0029_" fill="#FBF8F3" fill-rule="nonzero" stroke="black" stroke-width="0.03" stroke-linecap="round" stroke-linejoin="round" stroke-miterlimit="22.9256" points="40.54,18.55 40.54,18.57 40.52,18.66 40.52,18.68 40.54,18.7 40.54,18.72 40.56,18.76 40.56,18.8 40.54,18.84 40.5,18.86 40.48,18.88 40.42,18.9 40.19,18.84 40.17,18.64 40.23,18.37 40.34,18.17 40.4,18.19 40.42,18.19 40.46,18.19 40.42,18.29 40.46,18.37 40.52,18.45 "/>
   <polygon id="MQ_x0020_Martinique_x0020__x0028_FR_x0029__0" fill="#487D29" fill-rule="nonzero" stroke="black" stroke-width="0.03" stroke-linecap="round" stroke-linejoin="round" stroke-miterlimit="22.9256" points="45.63,30.26 45.59,30.28 45.51,30.45 45.47,30.51 45.41,30.53 45.35,30.55 45.31,30.51 45.29,30.45 45.31,30.38 45.37,30.36 45.41,30.34 45.43,30.26 45.39,30.18 45.33,30.22 45.25,30.26 45.16,30.26 45.18,30.2 45.14,30.2 45.02,30.22 44.76,30.18 44.7,30.2 44.58,30.24 44.51,30.26 44.47,30.24 44.39,30.08 44.39,30.04 44.39,30.02 44.37,30 44.33,29.98 44.45,29.84 44.6,29.78 44.64,29.73 44.68,29.82 44.74,29.84 44.8,29.82 44.84,29.73 44.82,29.69 44.8,29.65 44.78,29.57 44.76,29.49 44.7,29.51 44.64,29.53 44.6,29.53 44.56,29.53 44.45,29.53 44.43,29.53 44.41,29.49 44.39,29.43 44.37,29.41 44.21,29.29 44.15,29.21 44.11,29.13 44.11,29.09 44.11,29.07 44.09,29.02 44.07,29 44.07,28.96 44.07,28.94 44.09,28.9 44.11,28.86 44.09,28.8 44.07,28.74 44.05,28.7 43.93,28.56 43.91,28.48 43.89,28.42 43.91,28.34 43.95,28.29 43.99,28.25 44.17,28.13 44.33,28.13 44.47,28.19 44.66,28.34 44.84,28.42 44.9,28.48 44.92,28.5 44.92,28.56 44.94,28.58 45,28.6 45.06,28.78 45.14,28.72 45.23,28.68 45.33,28.64 45.45,28.64 45.41,28.68 45.39,28.7 45.37,28.72 45.37,28.74 45.27,28.86 45.23,28.76 45.18,28.78 45.16,28.88 45.16,28.98 45.21,28.98 45.25,28.98 45.27,29 45.29,29.02 45.16,29.11 45.18,29.15 45.14,29.17 45.14,29.21 45.18,29.23 45.23,29.17 45.37,29.25 45.33,29.25 45.31,29.25 45.31,29.27 45.27,29.27 45.29,29.35 45.33,29.39 45.41,29.45 45.43,29.47 45.43,29.51 45.45,29.55 45.49,29.55 45.51,29.57 45.53,29.61 45.53,29.65 45.53,29.69 45.59,29.65 45.57,29.73 45.55,29.8 45.57,29.86 45.59,29.92 45.57,29.92 45.55,29.94 45.55,29.96 45.53,29.98 45.59,30.02 45.61,30.08 45.61,30.16 45.65,30.22 "/>
   <polygon id="MF_x0020_Saint-Martin_x0020__x0028_FR_x0029_" fill="#FBF8F3" fill-rule="nonzero" stroke="black" stroke-width="0.03" stroke-linecap="round" stroke-linejoin="round" stroke-miterlimit="22.9256" points="37.23,11.92 36.93,11.8 36.84,11.78 36.84,11.76 36.8,11.76 36.74,11.8 36.72,11.8 36.68,11.76 36.66,11.74 36.68,11.72 36.82,11.72 36.91,11.7 36.95,11.66 36.99,11.55 37.03,11.53 37.11,11.49 37.21,11.47 37.27,11.47 37.25,11.57 37.27,11.74 37.27,11.9 "/>
   <polygon id="LC_x0020_Saint_x0020_Lucia" fill="#FBF8F3" fill-rule="nonzero" stroke="black" stroke-width="0.03" stroke-linecap="round" stroke-linejoin="round" stroke-miterlimit="22.9256" points="45.14,32.58 45.14,32.74 45.14,32.86 45.06,33.27 45.06,33.49 44.98,33.73 44.96,33.77 44.96,33.77 44.9,33.79 44.88,33.81 44.86,33.85 44.8,34.06 44.76,34.1 44.76,34.1 44.74,34.1 44.66,33.98 44.33,33.83 44.25,33.73 44.25,33.69 44.23,33.67 44.21,33.63 44.25,33.55 44.25,33.49 44.25,33.39 44.25,33.37 44.23,33.33 44.23,33.31 44.23,33.25 44.25,33.21 44.29,33.1 44.31,33.06 44.33,32.98 44.45,32.82 44.49,32.7 44.62,32.51 44.66,32.49 44.7,32.47 44.72,32.43 44.74,32.41 44.76,32.31 44.78,32.29 44.9,32.11 44.96,32.07 45.04,32.09 45.02,32.17 45.04,32.23 45.1,32.25 45.12,32.29 45.14,32.37 "/>
   <path id="KN_x0020_Saint_x0020_Kitts_x0020_and_x0020_Nevis" fill="#FBF8F3" fill-rule="nonzero" stroke="black" stroke-width="0.03" stroke-linecap="round" stroke-linejoin="round" stroke-miterlimit="22.9256" d="M38.71 16.2l0.1 0 0.08 0.02 0.07 0.06 0.02 0.12 0 0.04 0 0.13 -0.02 0.04 -0.03 0.06 -0.02 0.02 -0.08 0.02 -0.22 -0.02 -0.04 -0.19 0.06 -0.2 0.08 -0.1zm-0.18 -0.32l0.04 0.04 0.06 0.08 -0.02 0.08 -0.1 0.04 -0.04 -0.04 -0.04 -0.2 -0.08 -0.06 -0.06 -0.07 -0.04 -0.02 -0.15 0 -0.04 0 -0.14 -0.06 -0.18 -0.14 -0.12 -0.16 0.06 -0.16 0.02 -0.02 0 0 0.02 -0.02 0.02 0 0.06 -0.02 0.02 -0.02 0.02 -0.02 0.41 0.28 0.1 0.14 0.06 0.2 0.04 0.11 0.08 0.04z"/>
   <path id="GP_x0020_Guadeloupe_x0020__x0028_FR_x0029_" fill="#FBF8F3" fill-rule="nonzero" stroke="black" stroke-width="0.03" stroke-linecap="round" stroke-linejoin="round" stroke-miterlimit="22.9256" d="M44.47 22.71l0 0.07 -0.02 0.04 -0.04 0.04 -0.04 0.06 -0.12 0.06 -0.16 0.04 -0.14 -0.02 -0.04 -0.14 0 -0.04 0 -0.04 -0.02 -0.02 -0.02 -0.03 0 -0.02 0.02 -0.04 0.04 -0.06 0.02 -0.08 0.04 -0.06 0.08 -0.1 0.1 -0.06 0.12 0.04 0.08 0.08 0.04 0.14 0.02 0.04 0.04 0.04 0 0.06zm1.1 -2.13l-0.24 0.17 -0.15 0.06 -0.1 0 0.06 -0.04 0.21 -0.17 0.1 -0.06 0.12 0.04zm-2.56 0.33l0.02 0.02 -0.04 0.12 0.02 0.1 -0.02 0 -0.08 0.02 -0.04 0.06 -0.02 0.23 0.04 0.18 0.02 0.28 -0.06 0.27 -0.16 0.2 -0.2 0.12 -0.25 0.12 0 -0.04 -0.02 -0.06 0.02 -0.04 -0.02 -0.08 -0.04 -0.02 -0.04 -0.04 -0.04 -0.06 -0.04 -0.06 0 -0.06 -0.02 -0.04 -0.04 -0.02 -0.04 -0.19 0.04 -0.4 -0.06 -0.19 0.04 -0.08 -0.02 -0.06 -0.04 -0.06 -0.02 -0.06 0.02 -0.08 0.02 -0.16 0 -0.06 0.04 -0.04 0.08 -0.15 0.08 -0.06 0.08 -0.04 0.04 0.04 0.02 0.04 0.04 0.02 0.13 0.02 0.14 0.09 0.16 0.08 0.06 0.1 -0.06 0.04 0.02 0 0.02 0.02 0 -0.02 0.02 0 0 0.02 0.06 0.04 0.02 -0.06 0.04 -0.02 0.06 -0.02 0.02 0.04zm0.04 0l0 0 0 0 0.11 -0.29 0.04 -0.04 0.08 -0.04 0.02 0 0 -0.06 0.02 -0.04 -0.02 -0.04 0 -0.02 -0.04 -0.02 -0.04 -0.02 -0.02 0 -0.02 -0.18 -0.02 -0.04 0 -0.06 0.06 -0.06 0.06 -0.11 0.04 -0.02 0.04 -0.04 0.14 -0.08 0.02 -0.02 0 0 0.14 0.12 0.06 0.08 0.06 0.13 0 0.12 -0.02 0.14 0 0.04 0.04 0.08 0.03 0.08 0.06 0.06 0.04 0.04 0.06 0.04 0.04 -0.04 0.04 0.02 0.04 0 0.04 0 0.06 0.02 0.04 0.03 0.08 0.1 0.04 0.02 0.04 0.02 0.23 0.18 0.08 0.02 0.02 0.04 -0.04 0.04 -0.04 0 -0.12 -0.04 -0.05 0 -0.06 -0.04 -0.81 0.2 -0.16 0.08 -0.08 0.02 -0.08 -0.02 -0.1 -0.04 -0.06 -0.06 -0.07 -0.04 -0.04 -0.06 -0.02 -0.06 0.02 -0.08 0.02 -0.06zm-0.52 2.11l0 0.02 0.02 0.04 0 0.04 -0.04 0.04 -0.06 -0.04 0.02 -0.06 0.06 -0.04zm0.26 -0.02l0 0 0 0.02 -0.02 0.02 -0.06 0.04 -0.04 0.02 -0.02 -0.02 0.02 -0.04 0.02 0 0.04 -0.06 0.02 -0.02 0.02 0.02 0.02 0.02z"/>
   <path id="GD_x0020_Grenada" fill="#FBF8F3" fill-rule="nonzero" stroke="black" stroke-width="0.03" stroke-linecap="round" stroke-linejoin="round" stroke-miterlimit="22.9256" d="M41.31 41.81l0.02 0.08 0 0.08 -0.02 0.24 -0.02 0.04 -0.02 0.02 -0.02 0.09 0 0.04 0.02 0.08 -0.02 0.02 -0.02 0.02 -0.02 0.02 0 0.04 -0.02 0.04 -0.02 0.06 -0.21 0.1 0 -0.04 -0.04 0.02 -0.02 0.04 -0.02 0.04 -0.02 0.04 -0.04 0 -0.04 -0.02 -0.02 -0.02 -0.04 -0.02 -0.06 0.04 -0.06 0.02 -0.08 0 -0.08 -0.02 0.16 -0.12 0.04 -0.02 0.02 -0.08 -0.02 -0.06 -0.02 -0.06 0 -0.06 0.04 -0.12 0.1 -0.21 0 -0.08 0.29 -0.36 0.1 -0.02 0.1 0.02 0.08 0.06 0 0.02 -0.02 0.04zm0.89 -1.24l-0.08 -0.04 -0.06 0.04 -0.08 0.04 -0.08 0.02 0.02 -0.02 0.02 -0.08 0.02 -0.04 0 0 -0.06 0 0.02 -0.02 0.02 -0.04 0.1 0.02 0.06 -0.08 0.06 -0.12 0.06 -0.07 0.02 0.09 0 0.1 -0.02 0.1 -0.02 0.1z"/>
   <path id="DO_x0020_Dominican_x0020_Republic_x002c__x0020_The" fill="#FBF8F3" fill-rule="nonzero" stroke="black" stroke-width="0.03" stroke-linecap="round" stroke-linejoin="round" stroke-miterlimit="22.9256" d="M0.28 2.3l0.02 0 0.12 0 0.1 0.06 0.41 0.23 0.12 0.04 0.12 -0.07 0.08 0.09 0.06 0.02 0.21 0.02 0.04 -0.02 0.02 -0.04 0.02 -0.04 0.02 -0.07 0.06 -0.02 0.02 0.04 0.04 0.15 0.04 -0.02 0.02 -0.04 0.02 -0.02 0.02 -0.05 -0.04 0 0 -0.02 0 0 0 -0.04 0.06 0.04 0.06 -0.02 0.06 0 0.07 -0.02 0.06 -0.04 0.1 -0.16 0.06 -0.04 0.06 -0.02 0.16 -0.08 0.08 0 0.06 0.02 0.07 0.04 0.03 0.06 -0.03 0.08 0.08 0.04 0.04 0 -0.02 -0.08 0 -0.02 0.2 0.02 0.06 0 0.14 -0.04 0.04 0.02 0.06 0.04 0.17 0.25 0.02 0.06 -0.04 0.04 0.18 0 0.06 0.04 0.14 0.14 0.16 0.1 0.17 0.06 0.18 0.04 0.28 0 0.02 -0.02 0.02 -0.04 0.06 -0.04 0.06 -0.02 0.07 -0.02 0.16 0.06 0.24 0.31 0.14 0.18 0.06 0.06 0.09 0.04 0.08 0.04 0.2 0.02 0.16 0.06 0.29 0.06 0.06 0 0.06 0 0.04 -0.04 0.18 -0.2 0.08 -0.04 0.25 0 0.12 0 0.06 0 0.06 0.04 0.14 0.18 0.04 0.12 -0.02 0.13 -0.1 0.28 0.08 0.04 0.02 0.1 -0.02 0.22 0 0.11 0.02 0.08 0.24 0.48 0.13 0.15 0.02 0.02 0.14 0.06 0.08 0 0.18 -0.08 0.1 -0.02 0.21 0 0.08 -0.02 0.1 -0.05 0.14 -0.1 0.04 -0.02 0.06 0.02 0.08 0.04 0.07 0.02 0.1 -0.02 0.06 -0.02 0.02 0 0.02 0.02 0.02 0 0 0.04 0.02 0.02 0.02 0 0.06 -0.04 0.24 0.13 0.06 0.06 0.07 -0.13 0.1 -0.08 0.22 -0.12 0.12 -0.04 0.02 0.06 -0.04 0.12 -0.08 0.15 0.08 0.04 0.1 0 0.1 -0.04 0.09 -0.04 0.02 0.12 -0.07 0.08 -0.08 0.08 -0.06 0.08 -0.02 0.1 -0.06 0.08 -0.08 0.06 -0.1 0.02 -0.35 -0.06 -0.38 0.04 -0.1 -0.04 -0.14 -0.08 -0.57 -0.08 -0.06 0.02 -0.05 0.06 -0.03 0.25 -0.05 0.22 0 0.06 0.05 0.04 0.03 0.04 0.27 -0.04 0.08 0.04 0.1 -0.04 0.2 0.08 0.13 0 -0.04 -0.04 -0.02 -0.02 -0.04 -0.02 -0.07 0 0 -0.04 0.25 0 0.08 0 0.06 0.08 0.04 0.14 0.08 0.06 0.06 0.02 0.16 0.05 0.41 0.12 0.16 0.04 0.06 0 0.1 -0.06 -0.02 -0.04 -0.06 -0.02 0 -0.07 0.08 -0.02 0.07 0.07 0.08 0.18 0.06 0.02 0.06 0.02 0.06 0.04 0.02 0.06 0.06 -0.06 0.12 -0.04 0.04 -0.04 -0.02 -0.06 0.02 0 0.04 0 0.04 -0.02 0.05 -0.04 0.02 -0.02 0.02 -0.02 0.16 0.02 0.08 0.02 0.08 0.04 0.08 0.04 0 0 0 0.02 0 0.02 0.02 0.02 0.08 0.04 0.02 0 0.15 0.04 0.1 0 0.04 0.02 0 0 0.04 0.02 0.04 0.04 0.08 0 0.04 0.02 0.47 0.53 0.16 0.24 0.24 0.23 0.18 0.16 0.07 0.02 0.02 0.02 0.18 0.2 0.24 0.18 0.1 0.21 -0.06 0.2 -0.48 0.69 -0.02 0.04 -0.05 0.02 -0.02 0.06 0 0.18 -0.02 0.04 -0.06 0.09 -0.08 0.04 -0.08 0.02 -0.1 0 -0.08 -0.04 -0.16 -0.13 -0.06 -0.02 -0.09 0.06 0 0.09 0 0.1 -0.04 0.1 -0.06 0.08 -0.04 0.08 -0.1 0.31 -0.02 0.06 -0.06 0 -0.39 0.04 -0.06 -0.02 0 -0.21 -0.08 -0.24 -0.12 -0.24 -0.12 -0.17 -0.12 -0.1 -0.19 -0.08 -0.18 -0.04 -0.22 0.1 -0.33 0.02 -0.08 -0.02 -0.2 -0.08 -0.08 0 -0.08 -0.04 -0.12 -0.12 -0.09 -0.02 -0.1 0.02 -0.08 0.02 -0.08 0.02 -0.1 -0.06 -0.1 0.1 -0.57 0.04 -0.18 0.06 -0.1 0.02 -0.23 -0.2 -0.1 -0.04 -0.06 -0.02 -0.02 0.06 -0.02 0.04 0 0.06 0 0.06 -0.04 0 -0.06 0 -0.06 0 -0.02 -0.02 -0.06 -0.14 -0.04 -0.04 -0.05 -0.02 -0.66 -0.08 -0.13 0.02 -0.02 0 -0.08 0.02 -0.14 0.08 -0.12 0.08 -0.06 0.02 -0.12 0.04 -0.04 0.02 -0.07 0.04 -0.1 0.1 -0.1 0.12 -0.04 0.17 -0.02 0.04 -0.12 0.06 -0.02 0.02 -0.02 0.06 -0.16 0.16 -0.13 0.12 -0.08 0.06 -0.02 0 -0.1 0 -0.1 0.02 -0.04 0.03 -0.08 -0.05 -0.08 -0.02 -0.57 0 -0.1 0.02 -0.21 0.13 -0.1 0.02 -0.3 0 -0.08 -0.02 0 -0.06 0.04 -0.02 0.04 -0.05 0.02 -0.02 0 -0.06 -0.02 -0.02 -0.04 -0.02 -0.02 -0.06 -0.08 -0.06 -0.02 -0.04 0.02 -0.06 0.02 -0.02 0.04 -0.02 0.02 -0.04 0.04 -0.1 0.02 -0.1 -0.02 -0.11 -0.02 -0.06 -0.08 -0.12 -0.04 -0.06 -0.11 -0.04 -0.08 -0.02 -0.12 0 -0.1 0.02 -0.04 0.08 0 0.12 -0.02 0.04 -0.14 0.15 -0.04 0.02 -0.04 0.02 -0.07 0 -0.08 -0.04 -0.04 0 -0.04 0.02 -0.06 0.04 -0.06 0.02 -0.04 -0.02 -0.02 0.02 -0.06 0.04 0 0.02 -0.04 0.06 -0.02 0.02 0 0.02 -0.06 0.02 -0.02 0.02 -0.14 0.16 -0.07 0.04 -0.12 0 -0.04 0 -0.02 -0.06 -0.02 -0.04 -0.02 -0.04 -0.04 -0.04 -0.04 -0.02 -0.2 -0.06 -0.08 0 -0.09 0.04 -0.02 0.08 -0.02 0.04 -0.04 0.08 -0.02 0.04 0 0.08 0.02 0.02 0.02 0.04 0.02 0.07 0.07 0.28 0 0.04 0 0.06 -0.11 0.14 -0.1 0.21 -0.48 0.69 -0.05 0.1 -0.02 0.04 -0.06 0.04 -0.08 0.04 -0.06 0.06 -0.04 0.04 -0.04 0.06 -0.02 0.06 0 -10.55zm11.79 8.93l0.22 0 0.06 0.02 0.04 0.06 0.04 0.1 0.02 0.1 -0.02 0.04 -0.06 -0.02 -0.14 -0.08 -0.06 -0.02 -0.08 0.02 -0.14 0.04 -0.08 0.02 -0.17 -0.04 -0.1 -0.12 -0.04 -0.14 -0.04 -0.12 0.08 -0.02 0.06 0.02 0.08 0.04 0.07 0.06 0.06 0 0.2 0.04z"/>
   <polygon id="DM_x0020_Dominica" fill="#FBF8F3" fill-rule="nonzero" stroke="black" stroke-width="0.03" stroke-linecap="round" stroke-linejoin="round" stroke-miterlimit="22.9256" points="43.44,26.47 43.38,26.45 43.38,26.41 43.4,26.29 43.42,26.12 43.42,26.1 43.4,26.04 43.34,25.98 43.34,25.92 43.34,25.8 43.32,25.7 43.28,25.56 43.26,25.51 43.26,25.41 43.26,25.37 43.16,25.25 43.14,25.21 43.14,25.17 43.12,25.11 43.09,25.07 43.07,25.05 43.05,25.03 43.05,24.97 43.05,24.84 43.03,24.8 43.01,24.78 42.99,24.74 42.99,24.7 43.03,24.66 43.09,24.6 43.14,24.56 43.09,24.56 43.05,24.52 43.01,24.52 43.05,24.46 43.12,24.24 43.22,24.26 43.26,24.26 43.32,24.28 43.36,24.32 43.44,24.44 43.48,24.48 43.56,24.44 43.6,24.42 43.83,24.52 43.83,24.56 43.85,24.64 43.89,24.72 43.91,24.76 43.97,24.89 43.99,24.89 44.01,25.07 44.01,25.27 43.97,25.41 43.99,25.41 43.99,25.43 44.03,25.43 43.97,25.64 43.97,25.8 43.97,25.84 43.95,26.04 43.83,26.22 43.8,26.24 43.78,26.24 43.76,26.24 43.72,26.24 43.68,26.24 43.64,26.24 43.62,26.27 43.6,26.35 43.52,26.37 43.52,26.41 43.5,26.41 43.48,26.45 "/>
   <polygon id="CW_x0020_Curaçao_x0020__x0028_NL_x0029_" fill="#FBF8F3" fill-rule="nonzero" stroke="black" stroke-width="0.03" stroke-linecap="round" stroke-linejoin="round" stroke-miterlimit="22.9256" points="8.99,42.4 9.13,42.58 9.15,42.62 9.11,42.66 9.01,42.68 8.9,42.68 8.8,42.68 8.7,42.62 8.46,42.44 8.23,42.36 8.09,42.25 7.97,42.13 7.93,42.03 7.89,41.93 7.83,41.89 7.75,41.89 7.67,41.85 7.6,41.77 7.48,41.52 7.44,41.48 7.38,41.44 7.34,41.4 7.32,41.32 7.34,41.14 7.34,41.04 7.3,40.96 7.34,40.92 7.36,40.89 7.38,40.89 7.4,40.92 7.58,41.02 7.67,41.08 7.75,41.14 7.79,41.24 7.83,41.48 7.85,41.59 8.01,41.77 8.19,41.87 8.76,42.03 8.82,42.07 8.84,42.13 8.84,42.23 8.88,42.3 "/>
   <path id="BQ_x0020_Bonaire_x002c__x0020_Sint_x0020_Eustatius_x0020_and_x0020_Saba_x0020__x002f__x0020_Caribbean_x0020_Netherlands_x0020__x0028_NL_x0029_" fill="#FBF8F3" fill-rule="nonzero" stroke="black" stroke-width="0.03" stroke-linecap="round" stroke-linejoin="round" stroke-miterlimit="22.9256" d="M11.58 41.73l0.02 0.02 0.06 0.06 0 0.04 -0.04 0.02 -0.04 0.06 0 0.26 0 0.11 -0.04 0.04 -0.08 0 -0.04 0.02 0 0.06 0.04 0.12 0 0.06 0 0.04 -0.02 0.06 -0.04 0.06 -0.02 0.02 -0.06 0 -0.02 -0.02 -0.08 -0.22 -0.02 -0.1 0 -0.1 0.04 -0.17 0 -0.1 -0.02 -0.1 -0.06 -0.12 -0.08 -0.04 -0.21 -0.04 -0.1 -0.04 -0.08 -0.06 -0.02 -0.08 0.06 -0.11 -0.02 -0.04 0.02 -0.06 0.02 -0.04 0.06 -0.04 0.06 0 0.06 0.04 0.08 0.14 0.04 0.04 0.09 0.02 0.26 0.15 0.14 0.02 0.04 0.02zm25.51 -27.19l0.06 0.04 0.02 0.06 0.04 0.04 0.08 0.06 -0.02 0.06 -0.04 0.04 -0.1 0 -0.04 -0.14 0 -0.16zm-1.04 -0.63l0.04 0.02 0.02 0.08 -0.02 0.04 -0.04 0.02 -0.06 -0.04 0.02 -0.08 0.04 -0.04z"/>
   <polygon id="BL_x0020_Saint_x0020_Barthélemy_x0020__x0028_FR_x0029_" fill="#FBF8F3" fill-rule="nonzero" stroke="black" stroke-width="0.03" stroke-linecap="round" stroke-linejoin="round" stroke-miterlimit="22.9256" points="37.96,12.71 37.9,12.67 37.86,12.59 37.84,12.51 37.86,12.47 37.9,12.49 37.96,12.59 38.03,12.55 38.1,12.51 38.18,12.53 38.14,12.59 38.08,12.65 38.02,12.69 "/>
   <polygon id="BB_x0020_Barbados" fill="#FBF8F3" fill-rule="nonzero" stroke="black" stroke-width="0.03" stroke-linecap="round" stroke-linejoin="round" stroke-miterlimit="22.9256" points="51.43,36.94 51.39,37.12 51.27,37.26 51.19,37.32 51.13,37.36 51.03,37.47 50.99,37.49 50.97,37.49 50.93,37.49 50.91,37.51 50.87,37.43 50.79,37.36 50.68,37.34 50.62,37.34 50.58,37.32 50.54,37.28 50.48,37.16 50.44,36.94 50.44,36.25 50.46,36.17 50.5,36.11 50.56,36.03 50.64,36.01 50.72,36.05 50.79,36.15 50.81,36.21 50.83,36.29 50.91,36.49 50.95,36.57 51.03,36.65 51.15,36.76 51.21,36.8 51.29,36.82 51.37,36.88 "/>
   <polygon id="AW_x0020_Aruba_x0020__x0028_NL_x0029_" fill="#FBF8F3" fill-rule="nonzero" stroke="black" stroke-width="0.03" stroke-linecap="round" stroke-linejoin="round" stroke-miterlimit="22.9256" points="3.67,39.94 3.91,40.16 3.97,40.23 3.99,40.35 4.14,40.57 4.16,40.71 4.09,40.75 3.99,40.75 3.91,40.71 3.85,40.63 3.93,40.63 3.93,40.61 3.79,40.53 3.51,40.23 3.41,40.16 3.36,40.14 3.34,40.08 3.36,40.04 3.41,39.96 3.43,39.9 3.43,39.82 3.38,39.74 3.38,39.7 3.45,39.66 3.61,39.9 "/>
   <path id="AI_x0020_Anguilla_x0020__x0028_GB_x0029_" fill="#FBF8F3" fill-rule="nonzero" stroke="black" stroke-width="0.03" stroke-linecap="round" stroke-linejoin="round" stroke-miterlimit="22.9256" d="M37.39 10.7l0.1 -0.02 0.04 0 0 0.04 -0.1 0.16 -0.04 0.04 -0.06 0.05 -0.1 0.04 -0.3 0.18 0 -0.02 -0.04 -0.02 -0.03 -0.02 -0.1 0.08 -0.06 0.02 -0.08 0 0.12 -0.14 0.04 -0.04 0.06 -0.02 0.11 -0.02 0.06 -0.02 0.08 -0.11 0.08 -0.08 0.08 -0.08 0.14 -0.02zm-1.74 -1.64l0 -0.04 0.02 0 -0.02 0.04z"/>
   <path id="AG_x0020_Antigua_x0020_and_x0020_Barbuda" fill="#FBF8F3" fill-rule="nonzero" stroke="black" stroke-width="0.03" stroke-linecap="round" stroke-linejoin="round" stroke-miterlimit="22.9256" d="M41.86 16.97l0.02 -0.04 0 -0.06 0 -0.04 0.08 -0.04 -0.04 -0.02 -0.08 -0.06 0.04 -0.04 0.08 -0.04 0.12 -0.04 -0.04 -0.06 0.02 -0.07 0.04 -0.06 0.06 -0.04 0.14 0.02 0.06 0.1 0.02 0.11 0.07 0.06 0.02 -0.04 0.02 -0.04 0.04 -0.07 0.02 0.05 0.04 0.02 0.04 0.02 0.04 0 -0.02 0.02 -0.02 0.02 -0.02 0 -0.04 0.02 0.02 0.08 0.04 0.02 0.06 0 0.06 -0.04 0.04 0 0.02 0.04 0.02 0.02 0 0.06 -0.02 0 -0.06 0 -0.04 0 0.04 0.06 0.04 0.02 0.02 0.02 -0.02 0.06 -0.06 0.1 -0.04 0 -0.06 -0.04 -0.08 -0.02 -0.02 0.02 -0.02 0.04 0.02 0.15 -0.04 0.06 -0.06 -0.04 -0.09 -0.08 -0.02 -0.05 -0.04 0.02 -0.08 0.05 -0.06 0.01 -0.1 0 -0.06 -0.01 -0.14 -0.11 -0.02 -0.04 0.04 -0.08zm0.44 -2.78l-0.06 0.02 -0.02 -0.06 0 -0.22 0 -0.08 -0.02 -0.08 -0.02 -0.09 0.02 -0.1 0 0.02 0.02 0.02 0 0.04 0.02 0.07 0.06 0.08 0.02 0.06 0 0.08 -0.02 0.06 -0.02 0.04 0.06 0.04 0.02 -0.1 0.02 -0.14 -0.02 -0.1 -0.06 -0.07 -0.04 -0.06 0.04 -0.08 0.06 -0.04 0.09 0.12 -0.05 0.02 -0.02 0.02 0.05 0.02 0.1 -0.04 0.06 0.02 0.06 0.07 0.06 0.08 0.04 0.08 0.02 0.08 0.02 0.16 0 0.08 -0.02 0.08 -0.04 0.1 -0.02 0.02 -0.04 -0.02 -0.08 0.05 -0.02 -0.11 -0.08 -0.06 -0.19 -0.08z"/>
   <path fill="#68A3DE" fill-rule="nonzero" d="M13.43 51.93l0.22 0.21 0.06 0.08 -0.02 0.14 -0.04 0.12 -0.02 0.06 -0.02 0.02 -0.02 0 -0.02 0 -0.02 -0.02 -0.02 -0.06 -0.02 -0.02 -0.02 0 -0.02 0 -0.04 0 -0.06 0.02 -0.02 0 -0.06 0 -0.06 -0.02 -0.02 0 -0.03 0.02 0 0.02 0 0.04 -0.02 0.02 -0.01 0.02 -0.03 0.02 -0.02 0 -0.04 0 -0.02 -0.02 -0.02 0 -0.02 -0.04 -0.02 -0.02 -0.02 0 -0.06 -0.02 -0.04 0 -0.04 0.02 -0.16 0.08 -0.04 0 -0.02 0 -0.06 -0.04 -0.02 -0.02 -0.02 -0.02 0 -0.04 0 -0.04 0.02 -0.14 0.02 -0.02 0.08 -0.16 0.04 -0.04 0.02 0 0.02 -0.02 0.04 -0.02 0.1 -0.03 0.04 0 0.02 -0.02 0.04 -0.06 0.08 0 0.04 -0.02 0.02 0 0.04 -0.04 0.04 -0.02 0.05 -0.02 0.02 0 0.04 0 0.02 0 0.02 0 0 0.02 0 0.02 -0.04 0.02 0 0.02 0.02 0.02 0.02 0 0.02 0 0.02 -0.02 0.04 0 0.02 0 0.02 0.02zm2.45 2.01l-0.06 -0.04 -0.02 -0.02 0.02 -0.02 0.04 -0.02 0.02 0 0 -0.04 0.02 -0.02 0.02 -0.02 0 -0.02 0.03 0 0.02 0 0.02 0.02 0.02 0 0.02 -0.02 0.02 0 0.02 0.02 0 0.02 -0.02 0.02 -0.02 0 -0.04 0.02 -0.02 0.02 -0.02 0.02 0 0.02 0.02 0.02 0 0.02 0.08 0 0.08 0 0.02 0 0.06 -0.04 0.02 0 0.02 0 0.02 0.02 0.06 0.04 0.02 0.02 0.02 -0.02 0.02 0 0.02 -0.04 0.02 0 0.02 0.02 0.02 0.02 0 0.02 0.02 -0.02 0.06 -0.06 0.02 0 0.04 0 0.02 0 0 0.02 0 0.04 -0.02 0.02 -0.04 0.02 -0.04 0.04 -0.02 0.04 0 0.02 0.02 0 0.08 -0.04 0.05 0 0 0.02 0 0.05 -0.03 0.02 -0.02 0.02 -0.06 0.04 -0.04 0.04 -0.04 0.02 -0.06 0.06 -0.02 0 -0.06 0.04 -0.08 0.02 -0.02 -0.14 -0.02 -0.08 0 -0.02 -0.02 0 -0.04 0.02 -0.02 0.02 -0.04 0 -0.04 -0.02 -0.04 0 0 -0.02 0.02 -0.02 0.04 -0.03 0.02 -0.02 0 -0.04 0 -0.04 -0.02 0 -0.02 -0.02 -0.04 0 -0.09 0.04 -0.02 -0.02 -0.02 -0.04z"/>
  </g>
  <path fill="#487D29" fill-rule="nonzero" d="M44.77 22.98c1.75,0 3.34,0.72 4.49,1.87 1.15,1.15 1.86,2.73 1.86,4.49 0,1.75 -0.71,3.34 -1.86,4.49 -1.15,1.15 -2.74,1.86 -4.49,1.86 -1.76,0 -3.34,-0.71 -4.49,-1.86 -1.16,-1.15 -1.87,-2.74 -1.87,-4.49 0,-1.76 0.71,-3.34 1.87,-4.49 1.15,-1.15 2.73,-1.87 4.49,-1.87zm4.06 2.29c-1.04,-1.04 -2.47,-1.68 -4.06,-1.68 -1.59,0 -3.03,0.64 -4.07,1.68 -1.04,1.04 -1.68,2.48 -1.68,4.07 0,1.59 0.64,3.02 1.68,4.07 1.04,1.04 2.48,1.68 4.07,1.68 1.59,0 3.02,-0.64 4.06,-1.68 1.04,-1.05 1.69,-2.48 1.69,-4.07 0,-1.59 -0.65,-3.03 -1.69,-4.07z"/>
  <rect fill="none" stroke="#2D6399" stroke-width="0.56" stroke-miterlimit="22.9256" x="0.28" y="0.28" width="54.97" height="54.97"/>
 </g>
</svg>
